<svg xmlns="http://www.w3.org/2000/svg" height="800" width="1200" xml:space="preserve" y="0" x="0" id="Layer_1" version="1.1" viewBox="-184.965 -210.9 1603.03 1265.4"><style id="style8380" type="text/css">.st0{fill:#006}.st1{fill:#060}</style><g transform="translate(0 -3.4)" id="g8390"><path id="path8382" d="M279.7 37.9l-1.5 212.6c0 88.4-52.6 122.7-123.2 122.7-60.9 0-138.3-27-138.3-119.1V37.9c0-12-8.4-19.2-16.7-23.4h99.8c-8.3 4.2-16.1 11.4-16.1 23.4v217.8c0 36.4 12.5 87.9 80 87.9 61.9 0 84.3-40.6 84.3-92L247 38c0-12-6.2-19.2-14.1-23.4h60.3c-7.8 4-13.5 11.3-13.5 23.3" class="st0"/><path id="path8384" d="M420.5 373.2c-47.2 0-81.6-16.1-99.7-24.9l-2.6-87.9c9.9 36.9 41 85.8 95.1 85.8 51.5 0 67.1-36.9 67.1-62.4 0-49.9-45.3-56.7-92.5-82.2-47.8-26.5-68.6-54.6-68.6-94.1 0-70.7 66-98.8 113.3-98.8 17.7 0 51.9 3.6 78.5 19.2l2.6 76.9c-7.2-27.5-36.9-69.1-86.8-69.1-39.5 0-55.1 27.6-55.1 49.9 0 31.7 22.4 43.7 71.2 66 48.4 22.9 98.8 40 98.8 112.3-.1 65.1-57.3 109.3-121.3 109.3" class="st0"/><path id="path8386" d="M703.4 40.5c-12.5 0-40.1 0-47.9 1V341h41.6c117.5 0 150.3-79 150.3-154.9 0-62.4-36.4-145.6-144-145.6zm6.2 327.5H576c7.8-4.7 13.5-12 13.5-23.4V37.9c0-12-5.8-19.2-13.5-23.4h138.3c171 0 205.3 121.2 205.3 171.5 0 90.5-69.6 182-210 182" class="st0"/><path id="path8388" d="M1039.6 115.9s-35.4 88.4-52 127.4h105c-24.4-57.8-53-127.4-53-127.4zm82.1 252.1c13.5-7.3 16.1-14.6 12.5-25.5-1.6-5.2-15.1-36.9-29.6-72.3H977.2c-15.6 35.3-28.1 66-29.2 71.7-4.6 12.5-2.1 19.7 12 26h-71.7c14.5-9.9 19.2-15.6 24.4-25.5 9.9-19.8 146.7-339 146.7-339s138.3 319.2 147.7 339c5.2 10.9 8.8 16.6 26 25.5h-111.4" class="st0"/></g><g transform="translate(0 -3.4)" id="g8400"><path id="path8392" d="M1217.4 417.9s-756.6-18.8-1204.6 220c0 0 474.9-187.8 1204.6-169v-51" class="st1"/><path id="path8394" d="M12.8 417.9s254.9 2.7 413.1 61.7c0 0-324.6-26.8-413.1-13.4v-48.3" class="st1"/><path id="path8396" d="M12.8 501.1s182.5-8.1 292.4 2.7c0 0-265.6 32.2-292.4 45.6v-48.3" class="st1"/><path id="path8398" d="M1092 509.3c-1.2-.1-2.9.1-3.9.1-220 4.2-681.4 30.7-1075.1 169.9V847h1204.6V509.3c-.1 0-46.8-1.4-125.6 0" class="st1"/></g></svg>